# xmcd
#
# Track frame offsets:
#	150
#	18969
#	29204
#	46367
#	58080
#	72996
#	90714
#	102248
#	119513
#	136200
#	163006
#	181781
#	206624
#
# Disc length: 2927 seconds
#
# Revision: 2
# Processed by: cddbd v1.5.2PL0 Copyright (c) Steve Scherf et al.
# Submitted via: audiograbber 1.83.01
#
DISCID=b80b6d0d
DTITLE=Various Artist - Delta Swamp Rock - Sounds From The South - At The Cros
DTITLE=sroads Of Rock, Country And Soul CD2
DYEAR=1972
DGENRE=Southern Rock
TTITLE0=Lynyrd Skynyrd - The Seasons
TTITLE1=Barefoot Jerry's Grocery - Smokies
TTITLE2=Joe South - Hush
TTITLE3=Bobbie Gentry - Papa Won't You Let Me Go To Town
TTITLE4=Area Code 615 - Stone Fox Chase
TTITLE5=Duane and Gregg Allman - God Rest His Soul
TTITLE6=Cher - I Walk On Guilded Splinters
TTITLE7=Cowboy - Please Be With Me
TTITLE8=The Allman Brothers Band - Ain't Wasting No Time No More
TTITLE9=Link Wray - Be What You Want To
TTITLE10=Boz Scaggs - I'll Be Long Gone
TTITLE11=Lynyrd Skynyrd - Comin' Home
TTITLE12=Bobbie Gentry - Seasons Come, Seasons Go
EXTD=
EXTT0=
EXTT1=
EXTT2=
EXTT3=
EXTT4=
EXTT5=
EXTT6=
EXTT7=
EXTT8=
EXTT9=
EXTT10=
EXTT11=
EXTT12=
PLAYORDER=
